
<svg width="24" height="22" viewBox="0 0 24 22" fill="none" xmlns="http://www.w3.org/2000/svg">
<path d="M9.48113 18.24C8.16912 18.24 6.96112 18.024 5.85713 17.592C4.75312 17.16 3.79312 16.56 2.97712 15.792C2.16112 15.008 1.52912 14.096 1.08112 13.056C0.633125 12 0.409125 10.848 0.409125 9.6C0.409125 8.352 0.633125 7.208 1.08112 6.168C1.52912 5.112 2.16112 4.2 2.97712 3.432C3.79312 2.648 4.75312 2.04 5.85713 1.608C6.96112 1.176 8.16112 0.959999 9.45713 0.959999C10.7691 0.959999 11.9691 1.176 13.0571 1.608C14.1611 2.04 15.1211 2.64 15.9371 3.408C16.7531 4.176 17.3851 5.088 17.8331 6.144C18.2811 7.2 18.5051 8.352 18.5051 9.6C18.5051 10.848 18.2811 12 17.8331 13.056C17.3851 14.112 16.7531 15.024 15.9371 15.792C15.1211 16.56 14.1611 17.16 13.0571 17.592C11.9691 18.024 10.7771 18.24 9.48113 18.24ZM14.9531 21.672C14.3611 21.672 13.7851 21.6 13.2251 21.456C12.6811 21.328 12.1371 21.104 11.5931 20.784C11.0651 20.48 10.5131 20.072 9.93712 19.56C9.36113 19.064 8.72913 18.448 8.04113 17.712L11.3531 16.848C11.8011 17.44 12.2251 17.912 12.6251 18.264C13.0411 18.632 13.4411 18.896 13.8251 19.056C14.2091 19.216 14.6091 19.296 15.0251 19.296C16.1291 19.296 17.0891 18.848 17.9051 17.952L19.3451 19.68C18.2251 21.008 16.7611 21.672 14.9531 21.672ZM9.45713 15.504C10.3051 15.504 11.0891 15.36 11.8091 15.072C12.5291 14.784 13.1531 14.376 13.6811 13.848C14.2091 13.304 14.6171 12.672 14.9051 11.952C15.2091 11.232 15.3611 10.448 15.3611 9.6C15.3611 8.736 15.2091 7.952 14.9051 7.248C14.6171 6.528 14.2091 5.904 13.6811 5.376C13.1531 4.832 12.5291 4.416 11.8091 4.128C11.0891 3.84 10.3051 3.696 9.45713 3.696C8.60913 3.696 7.82513 3.84 7.10512 4.128C6.38513 4.416 5.76113 4.832 5.23312 5.376C4.70512 5.904 4.28912 6.528 3.98512 7.248C3.69712 7.952 3.55312 8.736 3.55312 9.6C3.55312 10.448 3.69712 11.232 3.98512 11.952C4.28912 12.672 4.70512 13.304 5.23312 13.848C5.76113 14.376 6.38513 14.784 7.10512 15.072C7.82513 15.36 8.60913 15.504 9.45713 15.504ZM21.7155 18.168C21.1715 18.168 20.7075 17.984 20.3235 17.616C19.9395 17.232 19.7475 16.752 19.7475 16.176C19.7475 15.568 19.9395 15.088 20.3235 14.736C20.7075 14.368 21.1715 14.184 21.7155 14.184C22.2595 14.184 22.7235 14.368 23.1075 14.736C23.4915 15.088 23.6835 15.568 23.6835 16.176C23.6835 16.752 23.4915 17.232 23.1075 17.616C22.7235 17.984 22.2595 18.168 21.7155 18.168Z" fill="#E0E0E0"/>
</svg>
