<svg width="9" height="12" viewBox="0 0 9 12" fill="none" xmlns="http://www.w3.org/2000/svg">
<path d="M4.5 0.5C3.30694 0.5013 2.16313 0.957014 1.31951 1.76717C0.475894 2.57732 0.00135344 3.67575 0 4.82147C0 8.51928 4.09091 11.312 4.26528 11.4289C4.33407 11.4752 4.41602 11.5 4.5 11.5C4.58398 11.5 4.66593 11.4752 4.73472 11.4289C4.90909 11.312 9 8.51928 9 4.82147C8.99865 3.67575 8.52411 2.57732 7.68049 1.76717C6.83687 0.957014 5.69306 0.5013 4.5 0.5ZM4.5 3.25003C4.82364 3.25003 5.14002 3.34219 5.40911 3.51486C5.67821 3.68754 5.88795 3.93296 6.0118 4.22011C6.13566 4.50725 6.16806 4.82322 6.10492 5.12805C6.04178 5.43288 5.88593 5.71288 5.65708 5.93265C5.42823 6.15242 5.13666 6.30209 4.81924 6.36272C4.50182 6.42336 4.1728 6.39224 3.87379 6.2733C3.57478 6.15436 3.31922 5.95294 3.13941 5.69452C2.95961 5.4361 2.86364 5.13227 2.86364 4.82147C2.86364 4.4047 3.03604 4.005 3.34292 3.71029C3.64979 3.41559 4.06601 3.25003 4.5 3.25003Z" fill="white"/>
</svg>
